<svg width="32" height="30" viewBox="0 0 32 30" fill="none" xmlns="http://www.w3.org/2000/svg">
<g id="Like">
<g id="Vector">
<path d="M1 11.6667C1 9.3655 2.86548 7.50002 5.16667 7.50002C7.46785 7.50002 9.33333 9.3655 9.33333 11.6667V25C9.33333 27.3012 7.46785 29.1667 5.16667 29.1667C2.86548 29.1667 1 27.3012 1 25V11.6667Z" stroke="#2D264B" stroke-width="1.5"/>
<path d="M15.2924 2.81661L11.5748 8.85764C10.5767 10.4796 10.0776 11.2906 9.77584 12.1793C9.68379 12.4504 9.60578 12.726 9.5421 13.0051C9.33333 13.9202 9.33333 14.8724 9.33333 16.7768V22.5C9.33333 26.1819 12.3181 29.1667 16 29.1667H20.8497C24.0062 29.1667 26.8917 27.3833 28.3033 24.5601L30.2175 20.7317C32.1084 16.9498 29.3583 12.5 25.13 12.5H23.9804C21.0988 12.5 18.8952 9.93147 19.3333 7.08335L19.7384 4.45039C19.9636 2.9867 18.8311 1.66669 17.3502 1.66669C16.5111 1.66669 15.7321 2.10199 15.2924 2.81661Z" stroke="#2D264B" stroke-width="1.5"/>
</g>
</g>
</svg>
