<svg width="32" height="32" viewBox="0 0 32 32" fill="none" xmlns="http://www.w3.org/2000/svg">
<g id="Scan 3">
<path id="Vector" d="M1 22.6667H0.25H1ZM1.75 21C1.75 20.5858 1.41421 20.25 1 20.25C0.585786 20.25 0.25 20.5858 0.25 21H1.75ZM11 31.75C11.4142 31.75 11.75 31.4142 11.75 31C11.75 30.5858 11.4142 30.25 11 30.25V31.75ZM9.33333 31V30.25V31ZM11 1.75C11.4142 1.75 11.75 1.41421 11.75 1C11.75 0.585787 11.4142 0.25 11 0.25V1.75ZM0.25 11C0.25 11.4142 0.585787 11.75 1 11.75C1.41421 11.75 1.75 11.4142 1.75 11H0.25ZM31 9.33333H30.25H31ZM30.25 11C30.25 11.4142 30.5858 11.75 31 11.75C31.4142 11.75 31.75 11.4142 31.75 11H30.25ZM21 0.25C20.5858 0.25 20.25 0.585786 20.25 1C20.25 1.41421 20.5858 1.75 21 1.75V0.25ZM22.6667 1V0.25V1ZM22.6667 31V30.25V31ZM21 30.25C20.5858 30.25 20.25 30.5858 20.25 31C20.25 31.4142 20.5858 31.75 21 31.75V30.25ZM31.75 21C31.75 20.5858 31.4142 20.25 31 20.25C30.5858 20.25 30.25 20.5858 30.25 21H31.75ZM31 22.6667H31.75H31ZM1.75 22.6667L1.75 21H0.25L0.25 22.6667H1.75ZM11 30.25H9.33333V31.75H11V30.25ZM0.25 22.6667C0.25 27.6833 4.31675 31.75 9.33333 31.75V30.25C5.14518 30.25 1.75 26.8548 1.75 22.6667H0.25ZM9.33333 1.75H11V0.25H9.33333V1.75ZM1.75 11V9.33333H0.25V11H1.75ZM9.33333 0.25C4.31675 0.25 0.25 4.31675 0.25 9.33333H1.75C1.75 5.14517 5.14517 1.75 9.33333 1.75V0.25ZM30.25 9.33333V11H31.75V9.33333H30.25ZM21 1.75L22.6667 1.75V0.25L21 0.25V1.75ZM31.75 9.33333C31.75 4.31675 27.6833 0.25 22.6667 0.25V1.75C26.8548 1.75 30.25 5.14517 30.25 9.33333H31.75ZM22.6667 30.25H21V31.75H22.6667V30.25ZM30.25 21V22.6667H31.75V21H30.25ZM22.6667 31.75C27.6833 31.75 31.75 27.6833 31.75 22.6667H30.25C30.25 26.8548 26.8548 30.25 22.6667 30.25V31.75ZM9.33333 11.9167C8.52646 11.9167 7.99675 11.9151 7.60448 11.8623C7.23379 11.8125 7.09999 11.7297 7.01849 11.6482L5.95783 12.7088C6.36448 13.1155 6.86759 13.2768 7.40461 13.349C7.92006 13.4183 8.56886 13.4167 9.33333 13.4167V11.9167ZM5.25 9.33333C5.25 10.0978 5.24841 10.7466 5.31771 11.2621C5.38991 11.7991 5.55117 12.3022 5.95783 12.7088L7.01849 11.6482C6.93698 11.5667 6.85417 11.4329 6.80433 11.0622C6.75159 10.6699 6.75 10.1402 6.75 9.33333H5.25ZM11.9167 9.33333C11.9167 10.1402 11.9151 10.6699 11.8623 11.0622C11.8125 11.4329 11.7297 11.5667 11.6482 11.6482L12.7088 12.7088C13.1155 12.3022 13.2768 11.7991 13.349 11.2621C13.4183 10.7466 13.4167 10.0978 13.4167 9.33333H11.9167ZM9.33333 13.4167C10.0978 13.4167 10.7466 13.4183 11.2621 13.349C11.7991 13.2768 12.3022 13.1155 12.7088 12.7088L11.6482 11.6482C11.5667 11.7297 11.4329 11.8125 11.0622 11.8623C10.6699 11.9151 10.1402 11.9167 9.33333 11.9167V13.4167ZM9.33333 6.75C10.1402 6.75 10.6699 6.75159 11.0622 6.80433C11.4329 6.85417 11.5667 6.93698 11.6482 7.01849L12.7088 5.95783C12.3022 5.55117 11.7991 5.38991 11.2621 5.31771C10.7466 5.24841 10.0978 5.25 9.33333 5.25V6.75ZM13.4167 9.33333C13.4167 8.56886 13.4183 7.92006 13.349 7.40461C13.2768 6.86759 13.1155 6.36448 12.7088 5.95783L11.6482 7.01849C11.7297 7.09999 11.8125 7.23379 11.8623 7.60448C11.9151 7.99675 11.9167 8.52646 11.9167 9.33333H13.4167ZM9.33333 5.25C8.56886 5.25 7.92006 5.24841 7.40461 5.31771C6.86759 5.38991 6.36448 5.55117 5.95783 5.95783L7.01849 7.01849C7.09999 6.93698 7.23379 6.85417 7.60448 6.80433C7.99675 6.75159 8.52646 6.75 9.33333 6.75V5.25ZM6.75 9.33333C6.75 8.52646 6.75159 7.99675 6.80433 7.60448C6.85417 7.23379 6.93698 7.09999 7.01849 7.01849L5.95783 5.95783C5.55117 6.36448 5.38991 6.86759 5.31771 7.40461C5.24841 7.92006 5.25 8.56886 5.25 9.33333H6.75ZM9.33333 25.25C8.52646 25.25 7.99675 25.2484 7.60448 25.1957C7.23379 25.1458 7.09999 25.063 7.01849 24.9815L5.95783 26.0422C6.36448 26.4488 6.86759 26.6101 7.40461 26.6823C7.92006 26.7516 8.56886 26.75 9.33333 26.75V25.25ZM5.25 22.6667C5.25 23.4311 5.24841 24.0799 5.31771 24.5954C5.38991 25.1324 5.55117 25.6355 5.95783 26.0422L7.01849 24.9815C6.93698 24.9 6.85417 24.7662 6.80433 24.3955C6.75159 24.0033 6.75 23.4735 6.75 22.6667H5.25ZM11.9167 22.6667C11.9167 23.4735 11.9151 24.0033 11.8623 24.3955C11.8125 24.7662 11.7297 24.9 11.6482 24.9815L12.7088 26.0422C13.1155 25.6355 13.2768 25.1324 13.349 24.5954C13.4183 24.0799 13.4167 23.4311 13.4167 22.6667H11.9167ZM9.33333 26.75C10.0978 26.75 10.7466 26.7516 11.2621 26.6823C11.7991 26.6101 12.3022 26.4488 12.7088 26.0422L11.6482 24.9815C11.5667 25.063 11.4329 25.1458 11.0622 25.1957C10.6699 25.2484 10.1402 25.25 9.33333 25.25V26.75ZM9.33333 20.0833C10.1402 20.0833 10.6699 20.0849 11.0622 20.1377C11.4329 20.1875 11.5667 20.2703 11.6482 20.3518L12.7088 19.2912C12.3022 18.8845 11.7991 18.7232 11.2621 18.651C10.7466 18.5817 10.0978 18.5833 9.33333 18.5833V20.0833ZM13.4167 22.6667C13.4167 21.9022 13.4183 21.2534 13.349 20.7379C13.2768 20.2009 13.1155 19.6978 12.7088 19.2912L11.6482 20.3518C11.7297 20.4333 11.8125 20.5671 11.8623 20.9378C11.9151 21.3301 11.9167 21.8598 11.9167 22.6667H13.4167ZM9.33333 18.5833C8.56886 18.5833 7.92006 18.5817 7.40461 18.651C6.86759 18.7232 6.36448 18.8845 5.95783 19.2912L7.01849 20.3518C7.09999 20.2703 7.23379 20.1875 7.60448 20.1377C7.99675 20.0849 8.52646 20.0833 9.33333 20.0833V18.5833ZM6.75 22.6667C6.75 21.8598 6.75159 21.3301 6.80433 20.9378C6.85417 20.5671 6.93698 20.4333 7.01849 20.3518L5.95783 19.2912C5.55117 19.6978 5.38991 20.2009 5.31771 20.7379C5.24841 21.2534 5.25 21.9022 5.25 22.6667H6.75ZM22.6667 25.25C21.8598 25.25 21.3301 25.2484 20.9378 25.1957C20.5671 25.1458 20.4333 25.063 20.3518 24.9815L19.2912 26.0422C19.6978 26.4488 20.2009 26.6101 20.7379 26.6823C21.2534 26.7516 21.9022 26.75 22.6667 26.75V25.25ZM18.5833 22.6667C18.5833 23.4311 18.5817 24.0799 18.651 24.5954C18.7232 25.1324 18.8845 25.6355 19.2912 26.0422L20.3518 24.9815C20.2703 24.9 20.1875 24.7662 20.1377 24.3955C20.0849 24.0033 20.0833 23.4735 20.0833 22.6667H18.5833ZM25.25 22.6667C25.25 23.4735 25.2484 24.0033 25.1957 24.3955C25.1458 24.7662 25.063 24.9 24.9815 24.9815L26.0422 26.0422C26.4488 25.6355 26.6101 25.1324 26.6823 24.5954C26.7516 24.0799 26.75 23.4311 26.75 22.6667H25.25ZM22.6667 26.75C23.4311 26.75 24.0799 26.7516 24.5954 26.6823C25.1324 26.6101 25.6355 26.4488 26.0422 26.0422L24.9815 24.9815C24.9 25.063 24.7662 25.1458 24.3955 25.1957C24.0033 25.2484 23.4735 25.25 22.6667 25.25V26.75ZM22.6667 20.0833C23.4735 20.0833 24.0033 20.0849 24.3955 20.1377C24.7662 20.1875 24.9 20.2703 24.9815 20.3518L26.0422 19.2912C25.6355 18.8845 25.1324 18.7232 24.5954 18.651C24.0799 18.5817 23.4311 18.5833 22.6667 18.5833V20.0833ZM26.75 22.6667C26.75 21.9022 26.7516 21.2534 26.6823 20.7379C26.6101 20.2009 26.4488 19.6978 26.0422 19.2912L24.9815 20.3518C25.063 20.4333 25.1458 20.5671 25.1957 20.9378C25.2484 21.3301 25.25 21.8598 25.25 22.6667H26.75ZM22.6667 18.5833C21.9022 18.5833 21.2534 18.5817 20.7379 18.651C20.2009 18.7232 19.6978 18.8845 19.2912 19.2912L20.3518 20.3518C20.4333 20.2703 20.5671 20.1875 20.9378 20.1377C21.3301 20.0849 21.8598 20.0833 22.6667 20.0833V18.5833ZM20.0833 22.6667C20.0833 21.8598 20.0849 21.3301 20.1377 20.9378C20.1875 20.5671 20.2703 20.4333 20.3518 20.3518L19.2912 19.2912C18.8845 19.6978 18.7232 20.2009 18.651 20.7379C18.5817 21.2534 18.5833 21.9022 18.5833 22.6667H20.0833Z" fill="#2D264B"/>
</g>
</svg>
