<svg width="34" height="33" viewBox="0 0 34 33" fill="none" xmlns="http://www.w3.org/2000/svg">
<path id="Work" fill-rule="evenodd" clip-rule="evenodd" d="M26.9717 4.30167H23.7C23.39 1.87833 21.315 0 18.81 0H14.5067C12.0017 0 9.92667 1.87667 9.61667 4.3L6.36167 4.30167C2.85333 4.30167 0 7.14833 0 10.6467V16.425C0 16.845 0.21 17.2367 0.561667 17.4683C3.99333 19.7333 8.055 21.2417 12.3067 21.8333C12.9383 21.9267 13.5183 21.5317 13.685 20.925C14.0567 19.5733 15.2483 18.665 16.65 18.665C18.0367 18.665 19.24 19.5933 19.5767 20.9183C19.7183 21.4783 20.2233 21.8617 20.7867 21.8617C20.845 21.8617 20.9017 21.8583 20.96 21.85C25.24 21.2583 29.32 19.7417 32.7567 17.4683C33.1067 17.235 33.3167 16.845 33.3167 16.425V10.6467C33.3167 7.14833 30.47 4.30167 26.9717 4.30167ZM30.8167 15.7417C28.0783 17.4433 24.9217 18.635 21.5983 19.22C20.685 17.375 18.785 16.165 16.65 16.165C14.5317 16.165 12.6233 17.3717 11.685 19.205C8.38167 18.6233 5.235 17.4383 2.5 15.7417V10.6467C2.5 8.52667 4.23167 6.80167 6.36333 6.80167L10.8267 6.79833C11.16 6.79833 11.4767 6.66667 11.7117 6.43167C11.945 6.195 12.0767 5.87833 12.0767 5.54667L12.075 4.93C12.075 3.59 13.1667 2.5 14.5067 2.5H18.81C19.9317 2.5 20.88 3.265 21.1583 4.30167H16.6583C15.9683 4.30167 15.4083 4.86167 15.4083 5.55167C15.4083 6.24167 15.9683 6.80167 16.6583 6.80167H26.9717C29.0917 6.80167 30.8167 8.52667 30.8167 10.6467V15.7417ZM17.908 22.3057V24.4623C17.908 25.1523 17.348 25.7123 16.658 25.7123C15.968 25.7123 15.408 25.1523 15.408 24.4623V22.3057C15.408 21.6157 15.968 21.0557 16.658 21.0557C17.348 21.0557 17.908 21.6157 17.908 22.3057ZM32.025 21.2088C31.37 21.2088 30.8483 21.7188 30.7983 22.3588C30.7983 22.3588 30.5417 25.2738 30.4883 26.1938C30.4267 27.2122 30.0133 28.3205 29.435 29.0155C28.62 29.9988 27.7167 30.3838 26.2133 30.3872C25.2267 30.3888 19.905 30.3905 15.885 30.3905C15.1933 30.3905 14.6333 30.9505 14.6333 31.6405C14.6333 32.3305 15.1933 32.8905 15.8833 32.8905C19.7633 32.8905 25.2867 32.8888 26.2183 32.8872C28.4417 32.8822 30.0767 32.1588 31.36 30.6122C32.2817 29.5022 32.8883 27.9072 32.9833 26.3438C33.0211 25.701 33.1503 24.0335 33.2222 23.1044L33.2223 23.1038C33.2518 22.7228 33.2717 22.4662 33.2717 22.4555C33.2717 21.7672 32.7133 21.2088 32.025 21.2088ZM7.10367 30.3868C7.43033 30.3885 8.107 30.3885 8.99533 30.3885C9.68533 30.3885 10.2503 30.9485 10.2503 31.6385C10.2503 32.3285 9.68367 32.8885 8.992 32.8885C8.092 32.8885 7.43533 32.8885 7.10033 32.8868C4.87533 32.8818 3.24033 32.1585 1.957 30.6102C1.037 29.5018 0.428667 27.9068 0.335333 26.3435C0.296896 25.7099 0.170543 24.0807 0.0979305 23.1444C0.0666431 22.741 0.0453333 22.4662 0.0453333 22.4552C0.0453333 21.7668 0.603667 21.2085 1.292 21.2085C1.947 21.2085 2.467 21.7185 2.51867 22.3602C2.51867 22.3602 2.77533 25.2752 2.83033 26.1935C2.892 27.2118 3.30367 28.3202 3.882 29.0135C4.69867 30.0002 5.602 30.3835 7.10367 30.3868Z" fill="#130F26"/>
</svg>
