<svg width="40" height="28" viewBox="0 0 40 28" fill="none" xmlns="http://www.w3.org/2000/svg">
<g id="Group 3">
<path id="Vector" d="M24.25 6.91669C24.25 9.2639 22.3472 11.1667 20 11.1667V12.6667C23.1756 12.6667 25.75 10.0923 25.75 6.91669H24.25ZM20 11.1667C17.6528 11.1667 15.75 9.2639 15.75 6.91669H14.25C14.25 10.0923 16.8244 12.6667 20 12.6667V11.1667ZM15.75 6.91669C15.75 4.56948 17.6528 2.66669 20 2.66669V1.16669C16.8244 1.16669 14.25 3.74105 14.25 6.91669H15.75ZM20 2.66669C22.3472 2.66669 24.25 4.56948 24.25 6.91669H25.75C25.75 3.74105 23.1756 1.16669 20 1.16669V2.66669ZM15 17.6667H25V16.1667H15V17.6667ZM25 26.1667H15V27.6667H25V26.1667ZM15 26.1667C12.6528 26.1667 10.75 24.2639 10.75 21.9167H9.25C9.25 25.0923 11.8244 27.6667 15 27.6667V26.1667ZM29.25 21.9167C29.25 24.2639 27.3472 26.1667 25 26.1667V27.6667C28.1756 27.6667 30.75 25.0923 30.75 21.9167H29.25ZM25 17.6667C27.3472 17.6667 29.25 19.5695 29.25 21.9167H30.75C30.75 18.741 28.1756 16.1667 25 16.1667V17.6667ZM15 16.1667C11.8244 16.1667 9.25 18.741 9.25 21.9167H10.75C10.75 19.5695 12.6528 17.6667 15 17.6667V16.1667Z" fill="#2D264B"/>
<g id="Vector_2">
<path d="M12.9202 11.3144C12.6573 10.8921 12.1641 10.6667 11.6667 10.6667C9.59559 10.6667 7.91666 8.98775 7.91666 6.91669C7.91666 4.84562 9.59559 3.16669 11.6667 3.16669C12.1641 3.16669 12.6573 2.94123 12.9202 2.51893C12.9319 2.50025 12.9435 2.48163 12.9553 2.46305C13.393 1.7722 13.1712 0.794021 12.3583 0.704526C12.1312 0.679522 11.9004 0.666687 11.6667 0.666687C8.21488 0.666687 5.41666 3.46491 5.41666 6.91669C5.41666 10.3685 8.21488 13.1667 11.6667 13.1667C11.9004 13.1667 12.1312 13.1539 12.3583 13.1288C13.1712 13.0394 13.393 12.0612 12.9553 11.3703C12.9436 11.3517 12.9319 11.3331 12.9202 11.3144Z" fill="#2D264B"/>
<path d="M7.84714 24.5281C7.65794 24.2125 7.32398 24 6.95597 24H6.66666C4.59559 24 2.91666 22.3211 2.91666 20.25C2.91666 18.179 4.59559 16.5 6.66666 16.5H6.95597C7.32398 16.5 7.65794 16.2876 7.84714 15.9719C8.30897 15.2014 7.8078 14 6.90948 14H6.66666C3.21488 14 0.416656 16.7982 0.416656 20.25C0.416656 23.7018 3.21488 26.5 6.66666 26.5H6.90948C7.8078 26.5 8.30897 25.2986 7.84714 24.5281Z" fill="#2D264B"/>
<path d="M27.0447 11.3703C26.607 12.0612 26.8287 13.0394 27.6417 13.1288C27.8688 13.1539 28.0995 13.1667 28.3333 13.1667C31.7851 13.1667 34.5833 10.3685 34.5833 6.91669C34.5833 3.46491 31.7851 0.666687 28.3333 0.666687C28.0995 0.666687 27.8688 0.679522 27.6417 0.704526C26.8287 0.794022 26.607 1.7722 27.0447 2.46305C27.0564 2.48162 27.0681 2.50025 27.0798 2.51893C27.3426 2.94123 27.8359 3.16669 28.3333 3.16669C30.4044 3.16669 32.0833 4.84562 32.0833 6.91669C32.0833 8.98775 30.4044 10.6667 28.3333 10.6667C27.8359 10.6667 27.3426 10.8921 27.0798 11.3144C27.0681 11.3331 27.0564 11.3517 27.0447 11.3703Z" fill="#2D264B"/>
<path d="M32.1528 24.5281C31.691 25.2987 32.1922 26.5 33.0905 26.5H33.3333C36.7851 26.5 39.5833 23.7018 39.5833 20.25C39.5833 16.7982 36.7851 14 33.3333 14H33.0905C32.1922 14 31.691 15.2014 32.1528 15.9719C32.342 16.2876 32.676 16.5 33.044 16.5H33.3333C35.4044 16.5 37.0833 18.179 37.0833 20.25C37.0833 22.3211 35.4044 24 33.3333 24H33.044C32.676 24 32.342 24.2125 32.1528 24.5281Z" fill="#2D264B"/>
</g>
</g>
</svg>
