<svg width="36" height="36" viewBox="0 0 36 36" fill="none" xmlns="http://www.w3.org/2000/svg">
<g id="Happy  1">
<path id="Vector" d="M9.66671 21.3333C10.7778 23.4762 14 26.3333 18 26.3333C22 26.3333 25.2223 23.4762 26.3334 21.3333M34.6667 18C34.6667 27.2047 27.2048 34.6666 18 34.6666C8.79529 34.6666 1.33337 27.2047 1.33337 18C1.33337 8.79523 8.79529 1.33331 18 1.33331C27.2048 1.33331 34.6667 8.79523 34.6667 18Z" stroke="#2D264B" stroke-width="1.5" stroke-linecap="round"/>
<g id="Vector_2">
<path d="M14.6667 11.3333C14.6667 12.2538 13.9205 13 13 13C12.0796 13 11.3334 12.2538 11.3334 11.3333C11.3334 10.4128 12.0796 9.66663 13 9.66663C13.9205 9.66663 14.6667 10.4128 14.6667 11.3333Z" fill="#2D264B"/>
<path d="M24.6667 11.3333C24.6667 12.2538 23.9205 13 23 13C22.0796 13 21.3334 12.2538 21.3334 11.3333C21.3334 10.4128 22.0796 9.66663 23 9.66663C23.9205 9.66663 24.6667 10.4128 24.6667 11.3333Z" fill="#2D264B"/>
</g>
</g>
</svg>
