<svg width="34" height="32" viewBox="0 0 34 32" fill="none" xmlns="http://www.w3.org/2000/svg">
<path id="Heart" fill-rule="evenodd" clip-rule="evenodd" d="M25.8677 0.504506C28.558 1.34115 30.7951 3.26292 32.0589 5.82304C33.5367 8.92596 33.7378 12.5014 32.6178 15.756C31.5868 18.7521 29.8966 21.4682 27.6765 23.6963C26.2209 25.1924 24.6524 26.57 22.9853 27.8163L22.8971 27.8912C22.3433 28.2641 21.5985 28.1176 21.2206 27.5616C21.0285 27.2931 20.9514 26.9567 21.0068 26.6293C21.0622 26.3018 21.2455 26.0112 21.5147 25.8237C23.079 24.6451 24.5538 23.348 25.9265 21.9434C27.9036 19.9979 29.4133 17.6139 30.3383 14.9769C31.228 12.3493 31.048 9.4681 29.8383 6.97664C28.8649 5.01667 27.1498 3.54525 25.0883 2.90159C22.4589 2.06396 19.5942 2.57175 17.3971 4.26494C16.9603 4.59457 16.3633 4.59457 15.9265 4.26494C13.7303 2.56939 10.8645 2.0614 8.23525 2.90159C6.15994 3.53103 4.42772 4.99801 3.4411 6.96166C2.25876 9.45128 2.08962 12.3159 2.97051 14.932C3.89944 17.5626 5.40881 19.9409 7.3823 21.8835C10.2983 24.732 13.5139 27.2442 16.9706 29.3744C17.4102 29.6851 17.6036 30.2488 17.4495 30.7708C17.2955 31.2928 16.829 31.6545 16.2941 31.6666C16.053 31.6681 15.8171 31.5949 15.6176 31.4569C12.0168 29.2382 8.66795 26.6205 5.63229 23.6514C3.39988 21.4306 1.70347 18.7126 0.676381 15.711C-0.404982 12.4609 -0.183005 8.90729 1.29403 5.82304C2.55783 3.26292 4.79492 1.34115 7.48525 0.504506C10.5784 -0.468824 13.9344 -0.0202587 16.6765 1.73301C19.4185 -0.0202587 22.7745 -0.468824 25.8677 0.504506ZM24.6618 11.9806C24.6004 10.596 23.6953 9.39857 22.3971 8.9842C21.9144 8.6772 21.7001 8.07402 21.8779 7.52337C22.0557 6.97272 22.5798 6.61707 23.1471 6.66202C25.3399 7.36721 26.9007 9.34742 27.103 11.6809C27.1445 12.0072 27.0558 12.3368 26.8568 12.5958C26.6577 12.8549 26.365 13.0218 26.0442 13.0592C25.3707 13.1479 24.7532 12.6661 24.6618 11.9806Z" fill="#130F26"/>
</svg>
